<?xml version="1.0" standalone="no"?>
<!DOCTYPE svg PUBLIC "-//W3C//DTD SVG 20010904//EN"
 "http://www.w3.org/TR/2001/REC-SVG-20010904/DTD/svg10.dtd">
<svg version="1.0" xmlns="http://www.w3.org/2000/svg"
 width="500.000000pt" height="500.000000pt" viewBox="0 0 500.000000 500.000000"
 preserveAspectRatio="xMidYMid meet">

<g transform="translate(0.000000,500.000000) scale(0.100000,-0.100000)"
fill="#000000" stroke="none">
<path d="M1542 3310 c-53 -22 -46 -104 10 -124 23 -8 33 -6 58 12 26 19 42 22
134 22 l105 0 5 -42 c3 -24 19 -187 36 -363 28 -303 44 -464 57 -582 4 -43 1
-57 -16 -82 -44 -61 -36 -133 20 -187 26 -25 39 -29 99 -32 l70 -4 -25 -30
c-48 -57 -30 -160 35 -193 130 -67 254 77 169 196 l-20 29 316 0 316 0 -21
-30 c-85 -119 41 -262 170 -195 63 33 81 138 34 194 l-25 30 118 3 c110 3 118
4 118 23 0 20 -8 20 -650 25 -357 3 -656 9 -663 13 -6 5 -19 22 -28 38 -19 37
-4 92 29 112 17 9 180 13 671 17 l650 5 87 395 c49 217 88 409 88 426 1 20 -5
34 -15 38 -9 3 -362 6 -785 6 -588 0 -769 3 -769 12 0 6 -5 63 -11 125 l-12
113 -129 0 c-115 0 -133 2 -155 20 -28 22 -37 23 -71 10z m668 -440 l0 -100
-129 0 c-72 0 -132 3 -134 8 -3 4 -8 49 -11 100 l-8 92 141 0 141 0 0 -100z
m426 84 c-3 -9 -6 -54 -6 -100 l0 -84 -179 0 -178 0 -7 38 c-3 20 -6 65 -6
100 l0 62 191 0 c170 0 190 -2 185 -16z m420 -11 c-3 -16 -8 -53 -11 -83 -11
-98 6 -90 -191 -90 l-174 0 0 48 c0 26 3 71 6 100 l7 52 184 0 185 0 -6 -27z
m363 -60 c-11 -49 -21 -94 -24 -100 -3 -10 -43 -13 -155 -13 l-150 0 0 25 c0
13 5 58 11 100 l11 75 163 0 163 0 -19 -87z m-1199 -205 c0 -24 3 -80 7 -126
l6 -83 -129 3 -129 3 -7 70 c-3 39 -9 94 -12 123 l-6 52 135 0 135 0 0 -42z
m398 -80 l-3 -123 -167 -3 -168 -2 0 48 c0 27 -3 83 -6 125 l-7 77 177 0 177
0 -3 -122z m402 97 c0 -25 -17 -162 -26 -202 -4 -23 -6 -23 -164 -23 l-160 0
0 88 c0 48 3 104 6 125 l7 37 168 0 169 0 0 -25z m360 16 c0 -4 -11 -58 -25
-119 -14 -61 -25 -113 -25 -116 0 -3 -63 -6 -140 -6 l-140 0 0 25 c0 25 17
162 26 203 4 22 7 22 154 22 83 0 150 -4 150 -9z m-1146 -322 c3 -17 6 -65 6
-105 l0 -74 -119 0 -120 0 -6 58 c-3 31 -8 78 -11 105 l-6 47 125 0 125 0 6
-31z m376 -43 c0 -40 -3 -88 -6 -105 l-7 -32 -151 3 -151 3 -3 103 -3 102 161
0 160 0 0 -74z m370 52 c0 -13 -5 -60 -12 -105 l-11 -83 -149 0 -148 0 0 98
c0 54 3 102 7 105 3 4 75 7 160 7 152 0 153 0 153 -22z m330 3 c0 -18 -24
-132 -36 -173 -5 -16 -20 -18 -135 -18 -71 0 -129 2 -129 4 0 12 21 164 25
184 5 21 9 22 140 22 127 0 135 -1 135 -19z"/>
</g>
</svg>
